<svg width="109" height="23" viewBox="0 0 109 23" fill="none" xmlns="http://www.w3.org/2000/svg">
<path d="M18.3796 2.9041L12.847 9.00964L19.1868 11.7346L4.36399 19.8351C3.96577 19.5334 3.58872 19.2053 3.23546 18.8533L8.84085 12.6673L2.82324 10.2647L17.2372 1.99951C17.9298 2.48127 17.9298 2.48127 18.3796 2.9041Z" fill="white"/>
<path d="M27.8735 6.28152V4.15149H39.0648V6.28152H34.7294V18.1782H32.2089V6.28152H27.8735Z" fill="white"/>
<path d="M42.1298 18.3905C41.4632 18.3905 40.8628 18.2718 40.3286 18.0344C39.7989 17.7924 39.3788 17.4362 39.0683 16.9659C38.7624 16.4956 38.6095 15.9158 38.6095 15.2263C38.6095 14.6327 38.719 14.1419 38.9382 13.7538C39.1574 13.3657 39.4565 13.0552 39.8354 12.8223C40.2144 12.5894 40.6413 12.4137 41.1162 12.2949C41.5956 12.1717 42.091 12.0826 42.6024 12.0278C43.2188 11.9639 43.7188 11.9068 44.1023 11.8566C44.4859 11.8018 44.7644 11.7196 44.9379 11.61C45.116 11.4959 45.205 11.3201 45.205 11.0827V11.0416C45.205 10.5256 45.0521 10.1261 44.7462 9.843C44.4402 9.55991 43.9996 9.41836 43.4243 9.41836C42.817 9.41836 42.3353 9.55077 41.9792 9.8156C41.6276 10.0804 41.3901 10.3932 41.2669 10.7539L38.9519 10.4252C39.1345 9.78592 39.4359 9.2517 39.856 8.8225C40.276 8.38873 40.7897 8.06454 41.397 7.84994C42.0043 7.63078 42.6755 7.52119 43.4106 7.52119C43.9174 7.52119 44.422 7.58055 44.9242 7.69926C45.4265 7.81798 45.8854 8.01432 46.3009 8.28828C46.7164 8.55767 47.0497 8.92523 47.3008 9.39096C47.5565 9.8567 47.6844 10.4389 47.6844 11.1375V18.1782H45.3009V16.7331H45.2187C45.0681 17.0253 44.8557 17.2993 44.5818 17.555C44.3124 17.8061 43.9722 18.0093 43.5613 18.1645C43.1549 18.3152 42.6778 18.3905 42.1298 18.3905ZM42.7736 16.5687C43.2713 16.5687 43.7028 16.4705 44.0681 16.2742C44.4334 16.0733 44.7142 15.8085 44.9105 15.4797C45.1114 15.151 45.2119 14.7925 45.2119 14.4044V13.1648C45.1343 13.2287 45.0018 13.288 44.8146 13.3428C44.632 13.3976 44.4265 13.4456 44.1982 13.4867C43.9699 13.5278 43.7439 13.5643 43.5202 13.5962C43.2964 13.6282 43.1024 13.6556 42.938 13.6784C42.5682 13.7287 42.2371 13.8108 41.9449 13.925C41.6527 14.0391 41.4221 14.199 41.2532 14.4044C41.0842 14.6053 40.9998 14.8656 40.9998 15.1852C40.9998 15.6418 41.1664 15.9865 41.4997 16.2194C41.8331 16.4523 42.2577 16.5687 42.7736 16.5687Z" fill="white"/>
<path d="M54.1876 18.3837C53.1374 18.3837 52.2357 18.1531 51.4823 17.6919C50.7334 17.2308 50.1558 16.5938 49.7495 15.7811C49.3477 14.9638 49.1468 14.0232 49.1468 12.9593C49.1468 11.8908 49.3522 10.948 49.7632 10.1307C50.1741 9.30878 50.754 8.66954 51.5028 8.21294C52.2562 7.75177 53.1466 7.52119 54.1739 7.52119C55.0278 7.52119 55.7834 7.67872 56.4409 7.99377C57.103 8.30426 57.6304 8.74488 58.0231 9.31563C58.4157 9.88181 58.6395 10.5439 58.6943 11.3018H56.3245C56.2286 10.795 56.0003 10.3727 55.6396 10.0348C55.2835 9.69232 54.8063 9.5211 54.2082 9.5211C53.7013 9.5211 53.2562 9.65808 52.8726 9.93203C52.4891 10.2014 52.19 10.5895 51.9754 11.0964C51.7654 11.6032 51.6603 12.2105 51.6603 12.9182C51.6603 13.6351 51.7654 14.2515 51.9754 14.7674C52.1854 15.2788 52.4799 15.6738 52.8589 15.9523C53.2425 16.2263 53.6922 16.3632 54.2082 16.3632C54.5734 16.3632 54.8999 16.2947 55.1876 16.1578C55.4798 16.0162 55.7241 15.813 55.9204 15.5482C56.1167 15.2834 56.2514 14.9615 56.3245 14.5825H58.6943C58.6349 15.3268 58.4157 15.9865 58.0367 16.5619C57.6578 17.1326 57.1418 17.5801 56.4889 17.9043C55.8359 18.2239 55.0689 18.3837 54.1876 18.3837Z" fill="white"/>
<path d="M65.4047 7.65817V9.57589H59.357V7.65817H65.4047ZM60.8501 5.13774H63.3294V15.014C63.3294 15.3473 63.3797 15.603 63.4801 15.7811C63.5851 15.9546 63.7221 16.0733 63.8911 16.1372C64.06 16.2011 64.2472 16.2331 64.4527 16.2331C64.6079 16.2331 64.7495 16.2217 64.8773 16.1989C65.0097 16.176 65.1102 16.1555 65.1787 16.1372L65.5965 18.0755C65.464 18.1211 65.2746 18.1714 65.028 18.2262C64.786 18.2809 64.4892 18.3129 64.1376 18.322C63.5166 18.3403 62.9573 18.2467 62.4596 18.0412C61.9619 17.8312 61.567 17.507 61.2747 17.0687C60.9871 16.6303 60.8455 16.0824 60.8501 15.4249V5.13774Z" fill="white"/>
<path d="M70.4424 5.65827V4.15149H80.9624V5.65827H76.5517V18.1782H74.8531V5.65827H70.4424Z" fill="white"/>
<path d="M85.5343 18.3974C84.5845 18.3974 83.7512 18.1714 83.0344 17.7193C82.3221 17.2673 81.765 16.6349 81.3632 15.8222C80.966 15.0094 80.7674 14.0597 80.7674 12.973C80.7674 11.8771 80.966 10.9206 81.3632 10.1033C81.765 9.28595 82.3221 8.65127 83.0344 8.19924C83.7512 7.74721 84.5845 7.52119 85.5343 7.52119C86.484 7.52119 87.315 7.74721 88.0273 8.19924C88.7442 8.65127 89.3012 9.28595 89.6984 10.1033C90.1003 10.9206 90.3012 11.8771 90.3012 12.973C90.3012 14.0597 90.1003 15.0094 89.6984 15.8222C89.3012 16.6349 88.7442 17.2673 88.0273 17.7193C87.315 18.1714 86.484 18.3974 85.5343 18.3974ZM85.5343 16.9454C86.2557 16.9454 86.8493 16.7605 87.315 16.3906C87.7807 16.0208 88.1255 15.5345 88.3492 14.9318C88.5729 14.3291 88.6848 13.6761 88.6848 12.973C88.6848 12.2698 88.5729 11.6146 88.3492 11.0073C88.1255 10.4 87.7807 9.9092 87.315 9.53479C86.8493 9.16038 86.2557 8.97318 85.5343 8.97318C84.8128 8.97318 84.2193 9.16038 83.7535 9.53479C83.2878 9.9092 82.9431 10.4 82.7193 11.0073C82.4956 11.6146 82.3837 12.2698 82.3837 12.973C82.3837 13.6761 82.4956 14.3291 82.7193 14.9318C82.9431 15.5345 83.2878 16.0208 83.7535 16.3906C84.2193 16.7605 84.8128 16.9454 85.5343 16.9454Z" fill="white"/>
<path d="M98.8197 13.8771V7.65817H100.436V18.1782H98.8197V16.3975H98.7101C98.4636 16.9317 98.08 17.386 97.5595 17.7604C97.039 18.1303 96.3815 18.3152 95.587 18.3152C94.9295 18.3152 94.3451 18.1714 93.8337 17.8837C93.3223 17.5915 92.9205 17.1532 92.6282 16.5687C92.336 15.9797 92.1899 15.2377 92.1899 14.3428V7.65817H93.8063V14.2332C93.8063 15.0003 94.0209 15.6121 94.4501 16.0687C94.8838 16.5253 95.4363 16.7536 96.1075 16.7536C96.5093 16.7536 96.918 16.6509 97.3335 16.4454C97.7536 16.24 98.1052 15.9249 98.3882 15.5003C98.6759 15.0756 98.8197 14.5346 98.8197 13.8771Z" fill="white"/>
<path d="M102.818 18.1782V7.65817H104.38V9.24714H104.489C104.681 8.72661 105.028 8.30426 105.53 7.98007C106.032 7.65589 106.599 7.49379 107.229 7.49379C107.347 7.49379 107.496 7.49608 107.674 7.50064C107.852 7.50521 107.987 7.51206 108.078 7.52119V9.16495C108.023 9.15125 107.898 9.1307 107.701 9.10331C107.51 9.07135 107.306 9.05536 107.092 9.05536C106.58 9.05536 106.124 9.16267 105.722 9.37727C105.325 9.5873 105.01 9.87953 104.777 10.2539C104.548 10.6238 104.434 11.0461 104.434 11.521V18.1782H102.818Z" fill="white"/>
</svg>
